<svg width="942" height="209" viewBox="0 0 942 209" fill="none" xmlns="http://www.w3.org/2000/svg">
<rect width="942" height="209" rx="5" transform="matrix(1 8.74228e-08 8.74228e-08 -1 0 209)" fill="#524C56"/>
<path d="M310.807 101.252V105.285C310.807 112.896 309.736 119.732 307.594 125.793C305.497 131.809 302.512 136.958 298.639 141.242C294.765 145.48 290.185 148.739 284.898 151.018C279.612 153.251 273.779 154.367 267.398 154.367C260.973 154.367 255.094 153.251 249.762 151.018C244.475 148.739 239.872 145.48 235.953 141.242C232.079 136.958 229.072 131.809 226.93 125.793C224.833 119.732 223.785 112.896 223.785 105.285V101.252C223.785 93.6413 224.833 86.8053 226.93 80.7441C229.072 74.6829 232.057 69.5332 235.885 65.2949C239.758 61.0111 244.339 57.7526 249.625 55.5195C254.957 53.2409 260.836 52.1016 267.262 52.1016C273.642 52.1016 279.475 53.2409 284.762 55.5195C290.094 57.7526 294.697 61.0111 298.57 65.2949C302.444 69.5332 305.452 74.6829 307.594 80.7441C309.736 86.8053 310.807 93.6413 310.807 101.252ZM286.471 105.285V101.115C286.471 96.1934 286.038 91.8639 285.172 88.127C284.352 84.3444 283.121 81.1771 281.48 78.625C279.84 76.0729 277.812 74.1589 275.396 72.8828C273.027 71.5612 270.315 70.9004 267.262 70.9004C264.072 70.9004 261.292 71.5612 258.922 72.8828C256.552 74.1589 254.57 76.0729 252.975 78.625C251.38 81.1771 250.172 84.3444 249.352 88.127C248.577 91.8639 248.189 96.1934 248.189 101.115V105.285C248.189 110.161 248.577 114.491 249.352 118.273C250.172 122.01 251.38 125.178 252.975 127.775C254.615 130.373 256.62 132.333 258.99 133.654C261.406 134.976 264.208 135.637 267.398 135.637C270.452 135.637 273.163 134.976 275.533 133.654C277.903 132.333 279.885 130.373 281.48 127.775C283.121 125.178 284.352 122.01 285.172 118.273C286.038 114.491 286.471 110.161 286.471 105.285ZM345.396 93.2539V181.438H322.359V79.0352H343.824L345.396 93.2539ZM390.787 115.129V116.564C390.787 121.942 390.172 126.932 388.941 131.535C387.711 136.138 385.888 140.148 383.473 143.566C381.057 146.984 378.049 149.65 374.449 151.564C370.895 153.433 366.77 154.367 362.076 154.367C357.656 154.367 353.85 153.387 350.66 151.428C347.47 149.468 344.804 146.757 342.662 143.293C340.52 139.829 338.788 135.865 337.467 131.398C336.145 126.932 335.097 122.215 334.322 117.248V115.402C335.097 110.07 336.145 105.126 337.467 100.568C338.788 95.9655 340.52 91.9551 342.662 88.5371C344.804 85.1191 347.447 82.4531 350.592 80.5391C353.782 78.625 357.587 77.668 362.008 77.668C366.702 77.668 370.826 78.5566 374.381 80.334C377.981 82.1113 380.989 84.6634 383.404 87.9902C385.865 91.2715 387.711 95.2135 388.941 99.8164C390.172 104.419 390.787 109.523 390.787 115.129ZM367.75 116.564V115.129C367.75 112.258 367.545 109.637 367.135 107.268C366.725 104.852 366.064 102.756 365.152 100.979C364.286 99.2012 363.124 97.834 361.666 96.877C360.208 95.9199 358.408 95.4414 356.266 95.4414C353.805 95.4414 351.731 95.8288 350.045 96.6035C348.404 97.3327 347.083 98.472 346.08 100.021C345.123 101.525 344.439 103.417 344.029 105.695C343.665 107.928 343.505 110.549 343.551 113.557V119.162C343.46 122.626 343.801 125.679 344.576 128.322C345.351 130.92 346.695 132.948 348.609 134.406C350.523 135.865 353.121 136.594 356.402 136.594C358.59 136.594 360.413 136.092 361.871 135.09C363.329 134.042 364.492 132.606 365.357 130.783C366.223 128.915 366.839 126.773 367.203 124.357C367.568 121.942 367.75 119.344 367.75 116.564ZM436.861 154.367C430.846 154.367 425.468 153.433 420.729 151.564C415.989 149.65 411.979 147.03 408.697 143.703C405.462 140.376 402.978 136.548 401.246 132.219C399.56 127.889 398.717 123.309 398.717 118.479V115.881C398.717 110.458 399.469 105.445 400.973 100.842C402.477 96.1934 404.71 92.1374 407.672 88.6738C410.634 85.2103 414.348 82.5215 418.814 80.6074C423.281 78.6478 428.476 77.668 434.4 77.668C439.641 77.668 444.335 78.5111 448.482 80.1973C452.63 81.8835 456.139 84.2988 459.01 87.4434C461.926 90.5879 464.137 94.3932 465.641 98.8594C467.19 103.326 467.965 108.339 467.965 113.898V123.264H407.535V108.84H445.475V107.062C445.52 104.602 445.087 102.505 444.176 100.773C443.31 99.0417 442.034 97.7201 440.348 96.8086C438.661 95.8971 436.611 95.4414 434.195 95.4414C431.689 95.4414 429.615 95.9883 427.975 97.082C426.38 98.1758 425.126 99.6797 424.215 101.594C423.349 103.462 422.734 105.627 422.369 108.088C422.005 110.549 421.822 113.146 421.822 115.881V118.479C421.822 121.213 422.187 123.697 422.916 125.93C423.691 128.163 424.785 130.077 426.197 131.672C427.656 133.221 429.387 134.429 431.393 135.295C433.443 136.161 435.768 136.594 438.365 136.594C441.51 136.594 444.609 136.001 447.662 134.816C450.715 133.632 453.336 131.672 455.523 128.938L465.982 141.379C464.479 143.521 462.337 145.594 459.557 147.6C456.822 149.605 453.541 151.245 449.713 152.521C445.885 153.752 441.601 154.367 436.861 154.367ZM499.957 94.8262V153H476.92V79.0352H498.521L499.957 94.8262ZM497.223 113.488L491.822 113.625C491.822 107.974 492.506 102.938 493.873 98.5176C495.24 94.0514 497.177 90.2689 499.684 87.1699C502.19 84.071 505.175 81.724 508.639 80.1289C512.148 78.4883 516.044 77.668 520.328 77.668C523.746 77.668 526.868 78.1693 529.693 79.1719C532.564 80.1745 535.025 81.7923 537.076 84.0254C539.173 86.2585 540.768 89.2207 541.861 92.9121C543.001 96.5579 543.57 101.07 543.57 106.447V153H520.396V106.379C520.396 103.417 519.986 101.161 519.166 99.6113C518.346 98.0163 517.161 96.9225 515.611 96.3301C514.062 95.7376 512.171 95.4414 509.938 95.4414C507.568 95.4414 505.562 95.8971 503.922 96.8086C502.281 97.7201 500.96 98.9961 499.957 100.637C499 102.232 498.294 104.123 497.838 106.311C497.428 108.498 497.223 110.891 497.223 113.488ZM643.58 126.545C643.58 124.995 643.352 123.605 642.896 122.375C642.441 121.099 641.598 119.914 640.367 118.82C639.137 117.727 637.359 116.633 635.035 115.539C632.757 114.4 629.749 113.215 626.012 111.984C621.637 110.526 617.421 108.885 613.365 107.062C609.309 105.194 605.686 103.029 602.496 100.568C599.306 98.0618 596.777 95.1452 594.908 91.8184C593.04 88.446 592.105 84.5267 592.105 80.0605C592.105 75.7767 593.062 71.9258 594.977 68.5078C596.891 65.0443 599.557 62.1048 602.975 59.6895C606.438 57.2285 610.494 55.36 615.143 54.084C619.791 52.7624 624.872 52.1016 630.387 52.1016C637.678 52.1016 644.104 53.3776 649.664 55.9297C655.27 58.4362 659.645 62.0137 662.789 66.6621C665.979 71.265 667.574 76.7109 667.574 83H643.717C643.717 80.4935 643.193 78.2832 642.145 76.3691C641.142 74.4551 639.615 72.9512 637.564 71.8574C635.514 70.7637 632.939 70.2168 629.84 70.2168C626.832 70.2168 624.303 70.6725 622.252 71.584C620.201 72.4954 618.652 73.7259 617.604 75.2754C616.555 76.7793 616.031 78.4427 616.031 80.2656C616.031 81.7695 616.441 83.1367 617.262 84.3672C618.128 85.5521 619.335 86.6686 620.885 87.7168C622.48 88.765 624.394 89.7676 626.627 90.7246C628.906 91.6816 631.458 92.6159 634.283 93.5273C639.57 95.2135 644.264 97.1048 648.365 99.2012C652.512 101.252 655.999 103.599 658.824 106.242C661.695 108.84 663.86 111.802 665.318 115.129C666.822 118.456 667.574 122.215 667.574 126.408C667.574 130.874 666.708 134.839 664.977 138.303C663.245 141.766 660.761 144.706 657.525 147.121C654.29 149.491 650.416 151.291 645.904 152.521C641.393 153.752 636.357 154.367 630.797 154.367C625.693 154.367 620.657 153.729 615.689 152.453C610.768 151.132 606.301 149.126 602.291 146.438C598.281 143.703 595.068 140.217 592.652 135.979C590.283 131.695 589.098 126.613 589.098 120.734H613.16C613.16 123.651 613.548 126.112 614.322 128.117C615.097 130.122 616.236 131.74 617.74 132.971C619.244 134.156 621.09 135.021 623.277 135.568C625.465 136.07 627.971 136.32 630.797 136.32C633.85 136.32 636.311 135.887 638.18 135.021C640.048 134.11 641.415 132.925 642.281 131.467C643.147 129.963 643.58 128.322 643.58 126.545ZM722.057 135.021V79.0352H745.162V153H723.561L722.057 135.021ZM724.244 119.982L730.26 119.846C730.26 124.813 729.667 129.416 728.482 133.654C727.298 137.847 725.543 141.493 723.219 144.592C720.94 147.691 718.115 150.106 714.742 151.838C711.415 153.524 707.564 154.367 703.189 154.367C699.544 154.367 696.194 153.866 693.141 152.863C690.133 151.815 687.535 150.197 685.348 148.01C683.16 145.777 681.451 142.928 680.221 139.465C679.036 135.956 678.443 131.763 678.443 126.887V79.0352H701.48V127.023C701.48 128.664 701.686 130.077 702.096 131.262C702.506 132.447 703.098 133.449 703.873 134.27C704.648 135.044 705.605 135.637 706.744 136.047C707.929 136.411 709.273 136.594 710.777 136.594C714.241 136.594 716.952 135.865 718.912 134.406C720.872 132.948 722.239 130.965 723.014 128.459C723.834 125.952 724.244 123.127 724.244 119.982ZM782.213 79.0352V153H759.107V79.0352H782.213ZM757.74 59.9629C757.74 56.6816 758.925 53.9928 761.295 51.8965C763.665 49.8001 766.741 48.752 770.523 48.752C774.306 48.752 777.382 49.8001 779.752 51.8965C782.122 53.9928 783.307 56.6816 783.307 59.9629C783.307 63.2441 782.122 65.9329 779.752 68.0293C777.382 70.1257 774.306 71.1738 770.523 71.1738C766.741 71.1738 763.665 70.1257 761.295 68.0293C758.925 65.9329 757.74 63.2441 757.74 59.9629ZM835.396 79.0352V95.0312H790.826V79.0352H835.396ZM800.191 60.6465H823.229V128.869C823.229 130.829 823.456 132.355 823.912 133.449C824.368 134.497 825.143 135.249 826.236 135.705C827.376 136.115 828.88 136.32 830.748 136.32C832.07 136.32 833.163 136.298 834.029 136.252C834.895 136.161 835.715 136.047 836.49 135.91V152.385C834.531 153.023 832.48 153.501 830.338 153.82C828.196 154.185 825.917 154.367 823.502 154.367C818.58 154.367 814.365 153.592 810.855 152.043C807.392 150.493 804.749 148.055 802.926 144.729C801.103 141.402 800.191 137.072 800.191 131.74V60.6465ZM880.377 154.367C874.361 154.367 868.984 153.433 864.244 151.564C859.505 149.65 855.494 147.03 852.213 143.703C848.977 140.376 846.493 136.548 844.762 132.219C843.076 127.889 842.232 123.309 842.232 118.479V115.881C842.232 110.458 842.984 105.445 844.488 100.842C845.992 96.1934 848.225 92.1374 851.188 88.6738C854.15 85.2103 857.864 82.5215 862.33 80.6074C866.796 78.6478 871.992 77.668 877.916 77.668C883.157 77.668 887.851 78.5111 891.998 80.1973C896.145 81.8835 899.654 84.2988 902.525 87.4434C905.442 90.5879 907.652 94.3932 909.156 98.8594C910.706 103.326 911.48 108.339 911.48 113.898V123.264H851.051V108.84H888.99V107.062C889.036 104.602 888.603 102.505 887.691 100.773C886.826 99.0417 885.549 97.7201 883.863 96.8086C882.177 95.8971 880.126 95.4414 877.711 95.4414C875.204 95.4414 873.131 95.9883 871.49 97.082C869.895 98.1758 868.642 99.6797 867.73 101.594C866.865 103.462 866.249 105.627 865.885 108.088C865.52 110.549 865.338 113.146 865.338 115.881V118.479C865.338 121.213 865.702 123.697 866.432 125.93C867.206 128.163 868.3 130.077 869.713 131.672C871.171 133.221 872.903 134.429 874.908 135.295C876.959 136.161 879.283 136.594 881.881 136.594C885.025 136.594 888.124 136.001 891.178 134.816C894.231 133.632 896.852 131.672 899.039 128.938L909.498 141.379C907.994 143.521 905.852 145.594 903.072 147.6C900.338 149.605 897.057 151.245 893.229 152.521C889.4 153.752 885.117 154.367 880.377 154.367Z" fill="white"/>
<path fill-rule="evenodd" clip-rule="evenodd" d="M76 145C76 143.343 77.3431 142 79 142L137 142C139.761 142 142 139.761 142 137L142 72C142 69.2386 139.761 67 137 67L73 67C69.6863 67 67 69.6863 67 73L67 130C67 131.657 65.6569 133 64 133L30 133C28.3431 133 27 131.657 27 130L27 73C27 47.5949 47.5949 27 73 27L137 27C161.853 27 182 47.1472 182 72L182 137C182 161.853 161.853 182 137 182L79 182C77.3431 182 76 180.657 76 179L76 145Z" fill="white"/>
<rect width="40" height="40" rx="3" transform="matrix(1 8.74228e-08 8.74228e-08 -1 27 182)" fill="white"/>
</svg>
